<svg width="151" height="22" viewBox="0 0 151 22" fill="none" xmlns="http://www.w3.org/2000/svg">
<path d="M21.1865 20.8843L21.0831 21.0135H27.2861L27.2344 20.9618C27.1569 20.8584 27.0277 20.6517 26.8468 20.3157L26.8209 20.2381C26.5108 19.6178 26.2006 18.5581 26.2006 17.0074V13.544C26.2006 9.25352 24.2621 5.76429 19.7649 5.76429C17.3871 5.76429 15.5778 7.15998 14.6991 8.55567C13.8461 6.84983 12.3471 5.76429 10.1243 5.76429C9.27137 5.76429 8.18583 5.91937 7.53968 6.20368C5.4203 7.08244 3.0166 7.0566 0.923065 6.10029C0.974757 6.20367 1.20737 6.51383 1.43999 7.10829C1.7243 7.78029 1.98276 8.78829 1.98276 10.1064L2.0086 17.0074C2.0086 19.3077 1.28491 20.5224 1.0006 20.8843L0.923065 21.0135H7.12614L7.07445 20.9618C6.99691 20.8584 6.84183 20.6517 6.66091 20.3157L6.63507 20.2381C6.35076 19.6178 6.0406 18.5581 6.0406 17.0074L6.01476 12.6652C6.01476 8.83998 7.0486 6.90152 9.7883 6.90152C11.3908 6.90152 12.0886 8.83998 12.0886 12.6394C12.0886 12.6652 12.0886 12.6652 12.0886 12.6911V17.0074C12.0886 19.3077 11.3649 20.5224 11.1065 20.8843L11.0031 21.0135H17.2061L17.1544 20.9618C17.0769 20.8584 16.9477 20.6517 16.7668 20.3157L16.7409 20.2381C16.4308 19.6178 16.1206 18.5581 16.1206 17.0074V12.3034C16.1981 8.68491 17.2061 6.90152 19.8683 6.90152C21.4708 6.90152 22.1686 8.83998 22.1686 12.6911V17.0074C22.1686 19.3077 21.4449 20.5224 21.1865 20.8843Z" fill="#2D3132"/>
<path d="M37.1872 5.76429C31.5011 5.76429 28.8906 9.25352 28.8906 13.544C28.8906 17.8603 31.5011 21.3495 37.1872 21.3495C42.8992 21.3495 45.5097 17.8603 45.5097 13.544C45.5097 9.25352 42.8992 5.76429 37.1872 5.76429ZM39.4617 19.7988C36.1792 20.9877 34.1374 17.6794 33.1552 15.0172C32.1989 12.3809 31.6303 8.50398 34.9386 7.28921C38.2211 6.10029 40.2888 9.43444 41.2451 12.0708C42.2014 14.7329 42.77 18.584 39.4617 19.7988Z" fill="#2D3132"/>
<path d="M58.9709 20.8843L58.8934 21.0135H64.7346L64.6829 20.9618C64.6054 20.8584 64.4503 20.6517 64.2694 20.3157L64.2435 20.2381C63.9592 19.6178 63.6491 18.5581 63.6491 17.0074V13.544C63.6491 9.25352 61.7881 5.76429 56.5672 5.76429C55.6884 5.76429 54.6029 5.91937 53.9567 6.20368C51.8374 7.08244 49.4337 7.0566 47.3401 6.10029C47.3918 6.20367 47.6244 6.51383 47.8571 7.10829C48.1414 7.78029 48.3998 8.78829 48.3998 10.1064L48.4257 17.0074C48.4257 19.3077 47.702 20.5224 47.4177 20.8843L47.3401 21.0135H53.5432L53.4915 20.9618C53.414 20.8584 53.2589 20.6517 53.078 20.3157L53.0521 20.2381C52.7678 19.6178 52.4577 18.5581 52.4577 17.0074L52.4318 12.6652C52.4318 8.83998 53.3881 6.90152 56.5672 6.90152C59.0226 6.90152 59.9789 8.83998 59.9789 12.6911V17.0074C59.9789 19.3077 59.2552 20.5224 58.9709 20.8843Z" fill="#2D3132"/>
<path d="M80.423 6.10029C80.6298 7.18583 80.5005 8.32306 80.0611 9.33106L75.4088 19.6178L70.7307 9.33106C70.2913 8.32306 70.1621 7.18583 70.3688 6.10029H63.8039C64.9928 7.21167 65.975 8.52983 66.647 10.0289L71.5836 21.0135H76.0033L80.9658 10.0289C81.6378 8.52983 82.6199 7.21167 83.8347 6.10029H80.423Z" fill="#2D3132"/>
<path d="M99.8696 10.1064C99.8696 7.44429 100.955 6.10029 100.955 6.10029C98.8358 7.0566 96.4321 7.08244 94.3127 6.17783C93.6665 5.91937 92.5551 5.76429 91.7022 5.76429C86.4555 5.76429 83.5607 9.25352 83.5607 13.544C83.5607 17.8603 86.4555 21.3237 91.7022 21.3237C93.8733 21.3237 94.9071 20.3415 95.8376 19.0492C95.8376 20.1348 97.0782 21.0135 98.1638 21.0135H100.955C100.955 21.0135 99.8696 19.7212 99.8696 17.3951V10.1064ZM91.7022 20.1864C89.221 20.1864 87.5668 17.3951 87.5668 13.544C87.5668 9.71875 89.221 6.90152 91.7022 6.90152C94.8555 6.90152 95.8376 9.71875 95.8376 13.544C95.8376 16.0511 94.8555 20.1864 91.7022 20.1864Z" fill="#2D3132"/>
<path d="M102.743 20.8843L102.665 21.0135H108.842L108.791 20.9618C108.713 20.8584 108.558 20.6517 108.403 20.3157L108.377 20.2381C108.067 19.6178 107.757 18.5581 107.757 17.0074V3.82583C107.757 2.0166 106.284 0.569214 104.474 0.569214H102.665C102.665 0.569214 103.751 1.73229 103.751 4.57537V17.0074C103.751 19.3077 103.027 20.5224 102.743 20.8843Z" fill="#2D3132"/>
<path d="M110.62 20.8843L110.542 21.0135H116.719L116.668 20.9618C116.59 20.8584 116.435 20.6517 116.28 20.3157L116.254 20.2381C115.944 19.6178 115.634 18.5581 115.634 17.0074V9.35691C115.634 7.54767 114.161 6.10029 112.351 6.10029H110.542C110.542 6.10029 111.628 7.26337 111.628 10.1064V17.0074C111.628 19.3077 110.904 20.5224 110.62 20.8843Z" fill="#2D3132"/>
<path d="M125.603 11.9415C124.207 11.7348 122.476 11.3212 122.476 10.2615C122.476 7.78029 124.181 6.90152 125.344 6.90152C126.352 6.90152 128.162 7.78029 128.162 10.7268H130.514C131.418 10.7268 132.116 9.79629 131.754 8.94337C130.72 6.64306 127.386 5.76429 125.293 5.76429C122.501 5.86767 118.469 7.10829 118.469 10.2615C118.469 13.2597 121.416 14.3969 125.086 14.9397C127.024 15.224 128.549 15.6117 128.549 16.7231C128.549 19.3335 126.663 20.1864 125.37 20.1864C123.975 20.1864 122.295 19.3335 122.295 16.7231H120.072C119.038 16.7231 118.366 17.8603 118.883 18.7132C120.02 20.4966 122.992 21.3237 125.344 21.3237C128.911 21.3237 132.581 20.0055 132.581 16.7231C132.581 13.3631 129.273 12.5101 125.603 11.9415Z" fill="#2D3132"/>
<path d="M144.036 19.928C140.857 19.928 139.151 17.1108 138.557 14.3194H148.507C150.058 14.3194 151.17 12.9237 150.782 11.4246C149.877 7.90952 146.698 5.76429 142.64 5.76429C137.549 5.76429 134.344 9.20183 134.344 13.4923C134.344 17.8086 137.549 21.3237 142.64 21.3237C146.466 21.3237 149.567 19.0234 150.627 16.232C150.627 16.232 147.939 19.928 144.036 19.928ZM141.27 7.0566C144.32 6.22952 146.414 9.12429 146.853 12.0708C146.957 12.6135 146.543 13.1821 146 13.1821H138.35C138.169 10.6751 138.608 7.80614 141.27 7.0566Z" fill="#2D3132"/>
</svg>
